<?xml version="1.0" standalone="no"?>
<!DOCTYPE svg PUBLIC "-//W3C//DTD SVG 20010904//EN"
 "http://www.w3.org/TR/2001/REC-SVG-20010904/DTD/svg10.dtd">
<svg version="1.0" xmlns="http://www.w3.org/2000/svg"
 width="500.000000pt" height="500.000000pt" viewBox="0 0 500.000000 500.000000"
 preserveAspectRatio="xMidYMid meet">

<g transform="translate(0.000000,500.000000) scale(0.100000,-0.100000)"
fill="#000000" stroke="none">
<path d="M2294 4559 c-271 -26 -504 -91 -749 -210 -147 -71 -256 -142 -402
-266 -346 -291 -561 -637 -683 -1096 -92 -349 -78 -784 36 -1125 92 -278 194
-468 366 -684 83 -104 261 -277 375 -362 527 -395 1232 -518 1868 -325 117 36
332 125 425 176 523 289 915 820 1029 1394 91 460 34 926 -163 1335 -147 304
-375 570 -669 781 -405 289 -936 431 -1433 382z m556 -69 c399 -65 772 -252
1081 -540 114 -106 284 -315 339 -415 18 -33 47 -87 65 -120 74 -135 124 -277
164 -470 44 -206 54 -324 48 -520 -11 -351 -80 -611 -241 -908 -157 -288 -378
-528 -666 -724 -25 -16 -98 -58 -164 -93 -309 -162 -628 -241 -976 -241 -179
-1 -273 9 -450 47 -221 47 -344 94 -585 224 -177 95 -433 313 -561 476 -74 94
-184 254 -184 266 0 5 -17 39 -38 76 -57 101 -128 276 -156 388 -57 226 -70
325 -70 544 0 215 9 291 60 505 147 623 610 1152 1219 1393 175 69 343 108
568 132 129 14 405 4 547 -20z"/>
<path d="M2290 4385 c-304 -35 -604 -140 -850 -300 -135 -87 -306 -240 -407
-362 -21 -26 -46 -55 -55 -65 -35 -36 -149 -218 -196 -314 -54 -109 -121 -291
-146 -399 -9 -39 -21 -88 -26 -110 -38 -161 -43 -446 -10 -640 18 -108 77
-321 109 -400 50 -118 79 -179 108 -225 18 -30 55 -89 80 -130 118 -190 346
-417 554 -551 338 -217 789 -331 1186 -299 521 41 1019 291 1336 668 92 111
110 135 184 257 164 270 251 565 268 905 5 107 2 167 -14 290 -43 325 -138
590 -303 837 -107 161 -403 448 -543 527 -16 9 -50 30 -75 46 -87 56 -250 131
-371 170 -294 95 -561 126 -829 95z m344 -125 c141 -12 341 -51 446 -87 136
-47 323 -134 410 -190 335 -218 593 -558 719 -946 51 -159 71 -277 78 -467 10
-260 -26 -503 -102 -695 -35 -89 -133 -286 -171 -345 -287 -446 -783 -756
-1299 -811 -151 -16 -441 -6 -564 20 -270 57 -589 210 -791 379 -200 167 -351
356 -460 572 -147 293 -200 543 -187 890 7 187 26 296 78 457 151 464 483 846
914 1049 208 97 441 159 660 173 66 5 127 9 135 9 8 1 68 -3 134 -8z"/>
<path d="M2302 4219 c-270 -24 -588 -143 -823 -307 -311 -218 -527 -510 -652
-883 -65 -193 -82 -306 -81 -539 0 -183 3 -218 27 -331 40 -188 115 -386 205
-542 112 -194 315 -412 510 -547 226 -157 436 -246 722 -307 134 -28 458 -25
610 5 327 66 614 209 864 428 231 204 431 528 514 834 48 177 57 246 56 465 0
189 -3 223 -27 336 -120 567 -502 1045 -995 1246 -326 133 -587 173 -930 142z
m575 -63 c355 -76 671 -252 888 -494 177 -197 261 -331 354 -569 133 -342 146
-738 36 -1098 -51 -165 -69 -210 -137 -330 -93 -164 -170 -268 -283 -381 -196
-196 -385 -314 -677 -423 -193 -72 -321 -93 -558 -93 -217 0 -317 15 -489 71
-384 127 -665 323 -890 622 -178 235 -277 458 -322 721 -58 341 -28 634 94
938 68 170 87 206 155 305 87 124 118 162 226 273 157 161 339 278 586 376
221 87 398 116 685 112 181 -3 227 -7 332 -30z"/>
</g>
</svg>
